# xmcd
#
# Track frame offsets:
# 150
# 17912
# 40887
# 61417
# 78900
# 80152
#
# Disc length: 1076 seconds
#
#
# Revision: 0
# Processed by: cddbd v1.5.2PL0 Copyright (c) Steve Scherf et al.
# Submitted via: FreeRIP 2.40 
#
DISCID=45043206
DTITLE=Mariah Carey - I Still Believe (US Promo)
DYEAR=1998
DGENRE=Pop
TTITLE0=Album Version
TTITLE1=Stevie J. Remix Edit Feat. Mocha and Amil
TTITLE2=Damizza Reemix Edit Feat. Krazie Bone and Da Brat
TTITLE3=David Morales Remix Edit
TTITLE4=Callout Hook #1
TTITLE5=Callout Hook #2
EXTD=
EXTT0=
EXTT1=
EXTT2=
EXTT3=
EXTT4=
EXTT5=
PLAYORDER=
